<?xml version="1.0" encoding="UTF-8" standalone="no"?>
<svg xmlns:rdf="http://www.w3.org/1999/02/22-rdf-syntax-ns#" xmlns="http://www.w3.org/2000/svg" height="144.334" width="233" version="1.1" xmlns:cc="http://creativecommons.org/ns#" xmlns:xlink="http://www.w3.org/1999/xlink" xmlns:dc="http://purl.org/dc/elements/1.1/">
 <defs>
  <linearGradient id="g" y2="75.3345" gradientUnits="userSpaceOnUse" x2="121.19" gradientTransform="translate(-97.8721 -10.2928)" y1="136.153" x1="150.1">
   <stop stop-color="#9fd117" offset="0"/>
   <stop stop-color="#cdd820" offset="1"/>
  </linearGradient>
  <linearGradient id="f" y2="92.9221" gradientUnits="userSpaceOnUse" x2="148.332" gradientTransform="translate(-97.8721 -10.2928)" y1="137.981" x1="176.222">
   <stop stop-color="#9fd117" offset="0"/>
   <stop stop-color="#cdd820" offset="1"/>
  </linearGradient>
  <linearGradient id="b" y2="88.3449" gradientUnits="userSpaceOnUse" x2="178.048" gradientTransform="translate(-97.8721 -10.2928)" y1="113.627" x1="190.807">
   <stop stop-color="#9fd117" offset="0"/>
   <stop stop-color="#cdd820" offset="1"/>
  </linearGradient>
  <linearGradient id="d" y2="59.8701" gradientUnits="userSpaceOnUse" x2="203.765" gradientTransform="translate(-97.8721 -10.2928)" y1="112.092" x1="223.868">
   <stop stop-color="#9fd117" offset="0"/>
   <stop stop-color="#cdd820" offset="1"/>
  </linearGradient>
  <linearGradient id="e" y2="43.6378" gradientUnits="userSpaceOnUse" x2="231.876" gradientTransform="translate(-97.8721 -10.2928)" y1="89.6777" x1="247.807">
   <stop stop-color="#9fd117" offset="0"/>
   <stop stop-color="#cdd820" offset="1"/>
  </linearGradient>
  <linearGradient id="a" y2="34.1127" gradientUnits="userSpaceOnUse" x2="264.755" gradientTransform="translate(-97.8721 -10.2928)" y1="69.5667" x1="277.868">
   <stop stop-color="#9fd117" offset="0"/>
   <stop stop-color="#cdd820" offset="1"/>
  </linearGradient>
  <linearGradient id="c" y2="23.6378" gradientUnits="userSpaceOnUse" x2="295.108" gradientTransform="translate(-97.8721 -10.2928)" y1="60.9099" x1="305.343">
   <stop stop-color="#9fd117" offset="0"/>
   <stop stop-color="#cdd820" offset="1"/>
  </linearGradient>
 </defs>
 <g fill-rule="evenodd">
  <path d="m14.1503 58.2249v0.03375c-0.69 1.14375-1.40625 2.4125-2.14625 3.81-0.70625 1.3375-1.35625 2.65625-1.93875 3.94625-3.26625 7.24-5.20875 14.9625-4.675 22.3612 0.295 4.08875 1.385 7.84375 3.11375 11.4725 1.5625 3.28 3.65125 6.3775 6.14375 9.50375 2.68625 3.37125 6.15875 7.39125 10.2538 12.135 3.2125 3.71875 6.8525 7.93375 11.565 13.5775 0 0.001 0.16125 0.19375 0.1625 0.195 3.26375 3.67375 7.185 5.1575 10.8888 5.07 2.365-0.0562 4.60375-0.79125 6.5425-2.0525 1.87875-1.22375 3.41625-2.91375 4.45-4.92875 1.4225-2.7775 1.92125-6.1775 1.00375-9.7275 4.6675 3.04625 9.46625 2.5575 13.405 0.55625 0.001 0.004 0.004 0.009 0.006 0.0125 0.002-0.001 0.005-0.002 0.007-0.004 0.0437-0.0213 0.0863-0.0425 0.13-0.065 0.94625-0.49125 1.83-1.11 2.63875-1.8475 0.8025-0.73 1.50625-1.5775 2.10625-2.5325 0.83875-1.335 1.42625-2.82375 1.73625-4.4325 5.8175 0.375 11.8725-1.07375 16.6825-3.25 0.4525-0.205 0.78-0.3575 0.96875-0.45125 1.4825-0.73875 2.93625-1.63 4.325-2.64875 1.53375 1.7025 3.48 3.18875 5.8625 4.3275 0.0312 0.015 0.20625 0.0937 0.51 0.2275 0.84375 0.375 1.75875 0.7 2.73125 0.97125 0.92125 0.25875 1.87125 0.45875 2.83875 0.59875 4.52375 0.65625 9.6825-0.0237 14.3212-2.19125 0 0 0.002-0.001 0.006-0.004h0.001c0.001-0.001 0.002-0.001 0.005-0.002 0.0425-0.015 0.18125-0.0588 0.1825-0.0588 0.002-0.001 0.004-0.002 0.006-0.004-0.004-0.008-0.008-0.015-0.0113-0.0225 0.84375-0.4 1.56875-0.78 2.15625-1.135 0.69875-0.4225 1.4525-0.94375 2.25625-1.5625 3.77-2.90375 6.815-7.0025 8.33625-12.39 0.002 0.001 0.005 0.001 0.009 0.003 0-0.003 0.001-0.005 0.001-0.008v-0.0337c0.4625-1.6475 0.74625-3.33 0.88625-5.03 0.2825 0.0187 0.56375 0.0337 0.84125 0.0413 4.4775 0.12125 9.05875-1.19 12.7938-3.7325 0.002-0.0025 0.004-0.0037 0.006-0.005v0.0012c0.6125-0.4175 1.16875-0.83125 1.6625-1.24125 0.4675-0.3875 0.98875-0.86875 1.56-1.4425 2.5675-2.57875 4.58-5.87 5.67-9.815 0 0 0.001-0.005 0.004-0.01375 0.001-0.0012 0.001-0.0025 0.001-0.0037 0.002-0.0088 0.006-0.02 0.0113-0.03375h-0.002c0.0137-0.05 0.0263-0.0975 0.04-0.14625 0.004 0.0012 0.007 0.0012 0.0113 0.0025 0.0688-0.2725-0.0188 0.09375-0.0312 0.14875-0.006-0.0012-0.0125-0.0038-0.0175-0.005 0.0188-0.0575 0.0487-0.1425 0.0487-0.14375-0.004-0.0012-0.007-0.0012-0.0113-0.0025 0.2875-1.06875 0.49625-2.04875 0.63125-2.95 0.15125-0.9975 0.2475-1.925 0.29875-2.78375 0.095 0.02875 0.19125 0.06 0.28625 0.08875 1.0775 0.32375 2.15375 0.57875 3.22 0.76625 0.004 0 0.009 0.0012 0.0125 0.0025h0.0337c7.4025 1.29 15.495-0.385 22.1175-4.55875 1.3025-0.8225 2.545-1.7325 3.70375-2.72625 1.05875-0.90625 2.06125-1.89 2.99875-2.9475 2.375 1.10125 4.98875 1.345 7.435 0.8h0.065c0.24625-0.05625-0.006 0.01 0.24375-0.05125-0.001-0.0025-0.001-0.005-0.002-0.0075 0.0962-0.02375 0.175-0.0425 0.22875-0.05625 0.001 0.0037 0.002 0.0087 0.004 0.0125 3.0075-0.8175 5.68625-2.83625 7.28375-5.92625 1.32125-2.5525 1.8275-5.7375 0.93-9.3375-0.1425-0.57375 0.03 0.025-0.075-0.35875-0.005 0.0025-0.01 0.0037-0.015 0.005-0.41875-1.85125 0.06 0.225-0.225-1.0175-0.5475-2.39875-1.0975-4.7975-1.5175-7.14375 2.63625 1.10625 5.27125 0.95875 8.48-0.1775 1.295-0.45875 2.48625-1.12625 3.56625-1.97 2.6825-2.10125 4.33625-5.09625 4.89-8.53625 0.43875-2.72125 0.16375-5.73625-0.88125-8.6875-0.7325-2.0675-1.87-4.17-3.4325-6.16625-0.66125-0.84375-1.34-1.6-2.0275-2.2625-3.31375-3.1975-7.44-5.08875-11.6688-5.51625-3.6825-0.3725-7.395 0.36625-10.71 2.30875-0.82375-0.355-1.68125-0.61125-2.57-0.785-2.19875-0.42875-4.25375-0.22375-6.31625 0.2425-0.0213 0.005-0.825 0.22125-0.84625 0.2275-0.007 0.0038-0.015 0.005-0.0213 0.0075-0.0225 0.01125-0.0437 0.0225-0.065 0.0325-3.17375 1.11-5.46625 2.97625-6.9575 5.42625-0.18-0.05375-0.36125-0.10625-0.545-0.155 0-0.0025 0.001-0.0063 0.002-0.0088-0.99-0.26375-2.07-0.46-3.2425-0.5825-1.2-0.125-2.31375-0.16875-3.32625-0.125-0.0175 0-0.0337 0.0013-0.0513 0.0025-3.795 0.175-7.80625 1.24375-11.795 3.195-0.72625 0.355-1.4675 0.7475-2.2175 1.1775-0.8825 0.50625-1.615 0.95-2.1875 1.3275-0.0188 0.0125-0.0375 0.025-0.0562 0.0375-0.0113 0.02125-0.0225 0.0425-0.0325 0.065-2.6425 1.765-4.91625 3.865-6.81 6.20875-0.9725-1.31375-2.11-2.29625-3.3925-3.035-3.02875-1.74375-5.78375-1.69625-8.6225-1.0475-0.055 0.01125-1.25125 0.36875-1.3025 0.39-2.54875 1.04125-4.385 2.5525-5.6625 4.515-0.54375 0.04375-1.10875 0.11375-1.6975 0.20875h-0.0325c-0.2 0.0325 0.08-0.0087-0.4125 0.08125-6.9025 1.26-11.27 5.11125-13.7825 10.1525-1.81875-0.25625-3.5675-0.0087-5.33875 0.4675-0.0538 0.01375-1.21875 0.4325-1.26875 0.455-3.17375 1.44125-5.1875 3.4175-6.32 5.92625-0.385 0.06-0.78 0.13-1.18375 0.21375-1.155 0.24-2.22 0.5525-3.18 0.935-5.29875 2.11-9.65875 6.515-11.5438 13.0938-0.245 0.85625-0.4625 1.8875-0.64875 3.08875-0.18375 1.17875-0.28625 1.8775-0.30125 2.0725-0.035 0.4325-0.0575 1.1375-0.0687 2.10875-0.0187 1.73625 0.1075 3.5525 0.38625 5.4275-1.32875 0.1-2.65125 0.28625-3.9525 0.54625-1.21875-2.78375-3.16625-4.8375-5.53875-6.3175-0.54-0.33625-1.09375-0.635-1.65875-0.89625 0.06-0.1 0.11875-0.2 0.1775-0.3025 0.005-0.0075 0.009-0.01375 0.0125-0.02125v-0.065c0.4825-0.845 0.91375-1.76625 1.29125-2.7425 0.3925-1.01625 0.69375-1.9425 0.905-2.7725 1.14875-4.49875 1.13875-9.8625 0.0987-13.9 0.004-0.0012 0.009-0.0025 0.0138-0.0037-0.0413-0.16625-0.0713-0.2875-0.0725-0.29375-0.004 0.0012-0.007 0.0025-0.0112 0.0037-0.29125-1.065-0.67-2.1075-1.135-3.12-0.53125-1.16125-1.12375-2.1925-1.7725-3.08875-3.6275-5.00875-9.1225-7.49625-16.145-7.04v0.0062c-2.71625 0.13375-5.4475 0.51375-8.17 1.11125-2.61625 0.57375-5.23875 1.3825-7.84625 2.3975-12.8 4.9875-23.7325 14.8125-30.6825 26.2988-0.005-0.0025-0.01-0.0063-0.0138-0.0088-0.006 0.01-0.0125 0.02-0.02 0.03z" fill="#516362"/>
  <path d="m14.1503 58.2249v0.03375c-0.69 1.14375-1.40625 2.4125-2.14625 3.81-0.70625 1.3375-1.35625 2.65625-1.93875 3.94625-3.26625 7.24-5.20875 14.9625-4.675 22.3612 0.295 4.08875 1.385 7.84375 3.11375 11.4725 1.5625 3.28 3.65125 6.3775 6.14375 9.50375 2.68625 3.37125 6.15875 7.39125 10.2538 12.135 3.2125 3.71875 6.8525 7.93375 11.565 13.5775 0 0.001 0.16125 0.19375 0.1625 0.195 3.26375 3.67375 7.185 5.1575 10.8888 5.07 2.365-0.0562 4.60375-0.79125 6.5425-2.0525 1.87875-1.22375 3.41625-2.91375 4.45-4.92875 1.4225-2.7775 1.92125-6.1775 1.00375-9.7275 4.6675 3.04625 9.46625 2.5575 13.405 0.55625 0.001 0.004 0.004 0.009 0.006 0.0125 0.002-0.001 0.005-0.002 0.007-0.004 0.0437-0.0213 0.0863-0.0425 0.13-0.065 0.94625-0.49125 1.83-1.11 2.63875-1.8475 0.8025-0.73 1.50625-1.5775 2.10625-2.5325 0.83875-1.335 1.42625-2.82375 1.73625-4.4325 5.8175 0.375 11.8725-1.07375 16.6825-3.25 0.4525-0.205 0.78-0.3575 0.96875-0.45125 1.4825-0.73875 2.93625-1.63 4.325-2.64875 1.53375 1.7025 3.48 3.18875 5.8625 4.3275 0.0312 0.015 0.20625 0.0937 0.51 0.2275 0.84375 0.375 1.75875 0.7 2.73125 0.97125 0.92125 0.25875 1.87125 0.45875 2.83875 0.59875 4.52375 0.65625 9.6825-0.0237 14.3212-2.19125 0 0 0.002-0.001 0.006-0.004h0.001c0.001-0.001 0.002-0.001 0.005-0.002 0.0425-0.015 0.18125-0.0588 0.1825-0.0588 0.002-0.001 0.004-0.002 0.006-0.004-0.004-0.008-0.008-0.015-0.0113-0.0225 0.84375-0.4 1.56875-0.78 2.15625-1.135 0.69875-0.4225 1.4525-0.94375 2.25625-1.5625 3.77-2.90375 6.815-7.0025 8.33625-12.39 0.002 0.001 0.005 0.001 0.009 0.003 0-0.003 0.001-0.005 0.001-0.008v-0.0337c0.4625-1.6475 0.74625-3.33 0.88625-5.03 0.2825 0.0187 0.56375 0.0337 0.84125 0.0413 4.4775 0.12125 9.05875-1.19 12.7938-3.7325 0.002-0.0025 0.004-0.0037 0.006-0.005v0.0012c0.6125-0.4175 1.16875-0.83125 1.6625-1.24125 0.4675-0.3875 0.98875-0.86875 1.56-1.4425 2.5675-2.57875 4.58-5.87 5.67-9.815 0 0 0.001-0.005 0.004-0.01375 0.001-0.0012 0.001-0.0025 0.001-0.0037 0.002-0.0088 0.006-0.02 0.0113-0.03375h-0.002c0.0137-0.05 0.0263-0.0975 0.04-0.14625 0.004 0.0012 0.007 0.0012 0.0113 0.0025 0.0688-0.2725-0.0188 0.09375-0.0312 0.14875-0.006-0.0012-0.0125-0.0038-0.0175-0.005 0.0188-0.0575 0.0487-0.1425 0.0487-0.14375-0.004-0.0012-0.007-0.0012-0.0113-0.0025 0.2875-1.06875 0.49625-2.04875 0.63125-2.95 0.15125-0.9975 0.2475-1.925 0.29875-2.78375 0.095 0.02875 0.19125 0.06 0.28625 0.08875 1.0775 0.32375 2.15375 0.57875 3.22 0.76625 0.004 0 0.009 0.0012 0.0125 0.0025h0.0337c7.4025 1.29 15.495-0.385 22.1175-4.55875 1.3025-0.8225 2.545-1.7325 3.70375-2.72625 1.05875-0.90625 2.06125-1.89 2.99875-2.9475 2.375 1.10125 4.98875 1.345 7.435 0.8h0.065c0.24625-0.05625-0.006 0.01 0.24375-0.05125-0.001-0.0025-0.001-0.005-0.002-0.0075 0.0962-0.02375 0.175-0.0425 0.22875-0.05625 0.001 0.0037 0.002 0.0087 0.004 0.0125 3.0075-0.8175 5.68625-2.83625 7.28375-5.92625 1.32125-2.5525 1.8275-5.7375 0.93-9.3375-0.1425-0.57375 0.03 0.025-0.075-0.35875-0.005 0.0025-0.01 0.0037-0.015 0.005-0.41875-1.85125 0.06 0.225-0.225-1.0175-0.5475-2.39875-1.0975-4.7975-1.5175-7.14375 2.63625 1.10625 5.27125 0.95875 8.48-0.1775 1.295-0.45875 2.48625-1.12625 3.56625-1.97 2.6825-2.10125 4.33625-5.09625 4.89-8.53625 0.43875-2.72125 0.16375-5.73625-0.88125-8.6875-0.7325-2.0675-1.87-4.17-3.4325-6.16625-0.66125-0.84375-1.34-1.6-2.0275-2.2625-3.31375-3.1975-7.44-5.08875-11.6688-5.51625-3.6825-0.3725-7.395 0.36625-10.71 2.30875-0.82375-0.355-1.68125-0.61125-2.57-0.785-2.19875-0.42875-4.25375-0.22375-6.31625 0.2425-0.0213 0.005-0.825 0.22125-0.84625 0.2275-0.007 0.0038-0.015 0.005-0.0213 0.0075-0.0225 0.01125-0.0437 0.0225-0.065 0.0325-3.17375 1.11-5.46625 2.97625-6.9575 5.42625-0.18-0.05375-0.36125-0.10625-0.545-0.155 0-0.0025 0.001-0.0063 0.002-0.0088-0.99-0.26375-2.07-0.46-3.2425-0.5825-1.2-0.125-2.31375-0.16875-3.32625-0.125-0.0175 0-0.0337 0.0013-0.0513 0.0025-3.795 0.175-7.80625 1.24375-11.795 3.195-0.72625 0.355-1.4675 0.7475-2.2175 1.1775-0.8825 0.50625-1.615 0.95-2.1875 1.3275-0.0188 0.0125-0.0375 0.025-0.0562 0.0375-0.0113 0.02125-0.0225 0.0425-0.0325 0.065-2.6425 1.765-4.91625 3.865-6.81 6.20875-0.9725-1.31375-2.11-2.29625-3.3925-3.035-3.02875-1.74375-5.78375-1.69625-8.6225-1.0475-0.055 0.01125-1.25125 0.36875-1.3025 0.39-2.54875 1.04125-4.385 2.5525-5.6625 4.515-0.54375 0.04375-1.10875 0.11375-1.6975 0.20875h-0.0325c-0.2 0.0325 0.08-0.0087-0.4125 0.08125-6.9025 1.26-11.27 5.11125-13.7825 10.1525-1.81875-0.25625-3.5675-0.0087-5.33875 0.4675-0.0538 0.01375-1.21875 0.4325-1.26875 0.455-3.17375 1.44125-5.1875 3.4175-6.32 5.92625-0.385 0.06-0.78 0.13-1.18375 0.21375-1.155 0.24-2.22 0.5525-3.18 0.935-5.29875 2.11-9.65875 6.515-11.5438 13.0938-0.245 0.85625-0.4625 1.8875-0.64875 3.08875-0.18375 1.17875-0.28625 1.8775-0.30125 2.0725-0.035 0.4325-0.0575 1.1375-0.0687 2.10875-0.0187 1.73625 0.1075 3.5525 0.38625 5.4275-1.32875 0.1-2.65125 0.28625-3.9525 0.54625-1.21875-2.78375-3.16625-4.8375-5.53875-6.3175-0.54-0.33625-1.09375-0.635-1.65875-0.89625 0.06-0.1 0.11875-0.2 0.1775-0.3025 0.005-0.0075 0.009-0.01375 0.0125-0.02125v-0.065c0.4825-0.845 0.91375-1.76625 1.29125-2.7425 0.3925-1.01625 0.69375-1.9425 0.905-2.7725 1.14875-4.49875 1.13875-9.8625 0.0987-13.9 0.004-0.0012 0.009-0.0025 0.0138-0.0037-0.0413-0.16625-0.0713-0.2875-0.0725-0.29375-0.004 0.0012-0.007 0.0025-0.0112 0.0037-0.29125-1.065-0.67-2.1075-1.135-3.12-0.53125-1.16125-1.12375-2.1925-1.7725-3.08875-3.6275-5.00875-9.1225-7.49625-16.145-7.04v0.0062c-2.71625 0.13375-5.4475 0.51375-8.17 1.11125-2.61625 0.57375-5.23875 1.3825-7.84625 2.3975-12.8 4.9875-23.7325 14.8125-30.6825 26.2988-0.005-0.0025-0.01-0.0063-0.0138-0.0088-0.006 0.01-0.0125 0.02-0.02 0.03z" fill="#516362"/>
  <path d="m12.8478 57.5699v0.0325c-0.69 1.14375-1.4075 2.41375-2.14625 3.81125-0.7075 1.33625-1.3575 2.65625-1.93875 3.945-3.26625 7.24-5.20875 14.9625-4.675 22.3625 0.29375 4.0875 1.385 7.84375 3.11375 11.4712 1.5625 3.28 3.65125 6.37875 6.1425 9.505 2.68625 3.37 6.15875 7.39125 10.255 12.1338 3.2125 3.71875 6.8525 7.93375 11.5638 13.5775 0.001 0.001 0.1625 0.195 0.16375 0.195 3.26375 3.675 7.185 5.15875 10.8888 5.07 2.365-0.0562 4.60375-0.79 6.5425-2.0525 1.87875-1.2225 3.415-2.9125 4.44875-4.92875 1.42375-2.77625 1.92125-6.1775 1.00375-9.72625 4.66875 3.04625 9.46625 2.55625 13.405 0.55625 0.002 0.004 0.005 0.007 0.006 0.0125 0.002-0.001 0.006-0.002 0.009-0.004 0.0425-0.0225 0.0863-0.0437 0.13-0.065 0.94625-0.4925 1.83-1.11 2.6375-1.8475 0.8025-0.73125 1.5075-1.57875 2.10625-2.5325 0.83875-1.33625 1.4275-2.82375 1.73625-4.4325 5.8175 0.37375 11.8738-1.07375 16.6838-3.25 0.4525-0.205 0.78-0.3575 0.96875-0.4525 1.48125-0.7375 2.935-1.63 4.325-2.64875 1.53375 1.70375 3.48 3.18875 5.8625 4.32875 0.03 0.0138 0.20625 0.0925 0.51 0.2275 0.84375 0.37375 1.75875 0.69875 2.73125 0.97125 0.92125 0.25875 1.87125 0.45875 2.8375 0.59875 4.525 0.655 9.6825-0.025 14.3212-2.1925 0 0 0.002-0.001 0.008-0.002l0.001-0.001c0.001 0 0.002-0.001 0.004-0.002 0.0437-0.0138 0.1825-0.0575 0.18375-0.0588 0.001-0.001 0.004-0.002 0.006-0.002-0.004-0.009-0.009-0.0162-0.0112-0.0238 0.84375-0.4 1.5675-0.77875 2.155-1.135 0.7-0.4225 1.4525-0.9425 2.2575-1.56125 3.77-2.90375 6.815-7.0025 8.335-12.39 0.003 0 0.006 0.001 0.009 0.002 0.001-0.004 0.001-0.006 0.002-0.009v-0.0325c0.4625-1.6475 0.74625-3.33 0.885-5.03125 0.28375 0.02 0.565 0.0337 0.8425 0.0413 4.4775 0.12125 9.0575-1.19 12.7938-3.73125 0.001-0.0025 0.004-0.005 0.005-0.0062 0 0.0012 0.001 0.0012 0.001 0.0012 0.61125-0.41625 1.16875-0.83125 1.66125-1.24 0.46875-0.38875 0.99-0.87 1.56125-1.4425 2.5675-2.57875 4.57875-5.87 5.67-9.815 0 0 0.001-0.005 0.004-0.01375 0-0.0012 0.001-0.0037 0.001-0.0037 0.002-0.01 0.006-0.02125 0.01-0.03375 0-0.0012-0.001-0.0012-0.001-0.0012 0.0138-0.04875 0.0263-0.09625 0.0387-0.145 0.004 0 0.009 0.0012 0.0125 0.0025 0.0675-0.2725-0.02 0.09375-0.0312 0.14875-0.006-0.0025-0.0125-0.0037-0.0188-0.005 0.02-0.05875 0.05-0.14375 0.05-0.14375-0.004-0.0012-0.009-0.0025-0.0125-0.0025 0.2875-1.06875 0.4975-2.05 0.6325-2.95 0.15-0.9975 0.2475-1.925 0.29875-2.785 0.0937 0.03 0.19125 0.06 0.28625 0.08875 1.0775 0.325 2.15375 0.58 3.21875 0.76625 0.005 0.0012 0.009 0.0025 0.0138 0.0025h0.0325c7.40375 1.29 15.495-0.385 22.1175-4.55875 1.30375-0.82125 2.545-1.7325 3.705-2.72625 1.05875-0.90625 2.06-1.89 2.9975-2.94625 2.37625 1.1 4.99 1.34375 7.435 0.8h0.0662c0.24625-0.0575-0.007 0.01 0.2425-0.0525 0-0.0025-0.001-0.005-0.001-0.0062 0.095-0.02375 0.17375-0.0425 0.22875-0.05625 0.001 0.0037 0.002 0.0075 0.004 0.0125 3.00625-0.8175 5.68625-2.8375 7.28375-5.92625 1.32125-2.5525 1.8275-5.7375 0.93-9.3375-0.1425-0.57375 0.0288 0.02375-0.075-0.35875-0.005 0.0012-0.01 0.0037-0.0163 0.005-0.41875-1.85125 0.0613 0.22375-0.22375-1.0175-0.54875-2.4-1.0975-4.7975-1.51875-7.14375 2.6375 1.10625 5.27125 0.9575 8.48125-0.17875 1.295-0.45875 2.48625-1.12625 3.565-1.96875 2.6825-2.10125 4.3375-5.09625 4.89125-8.53625 0.43875-2.7225 0.1625-5.7375-0.8825-8.68875-0.73125-2.0675-1.86875-4.17-3.43125-6.165-0.66125-0.845-1.34125-1.6-2.02875-2.26375-3.3125-3.19625-7.44-5.0875-11.6675-5.515-3.6825-0.3725-7.395 0.36625-10.7112 2.3075-0.82375-0.35375-1.68-0.61125-2.56875-0.78375-2.2-0.42875-4.25375-0.225-6.31625 0.2425-0.0225 0.0038-0.825 0.22-0.84625 0.2275-0.007 0.0025-0.015 0.005-0.0225 0.0075-0.0213 0.01125-0.0425 0.0225-0.065 0.0325-3.17375 1.11-5.46625 2.97625-6.95625 5.425-0.18125-0.0525-0.3625-0.105-0.54625-0.155 0.001-0.0025 0.002-0.005 0.002-0.0075-0.98875-0.26375-2.06875-0.46125-3.24125-0.5825-1.2-0.125-2.315-0.17-3.3275-0.12625-0.0163 0.0013-0.0337 0.0013-0.05 0.0025-3.795 0.17625-7.8075 1.245-11.795 3.195-0.72625 0.35625-1.4675 0.74875-2.2175 1.17875-0.88375 0.505-1.61625 0.95-2.18875 1.3275-0.0188 0.0125-0.0375 0.02375-0.0563 0.03625-0.01 0.0225-0.0213 0.04375-0.0325 0.065-2.64125 1.765-4.91625 3.86625-6.80875 6.20875-0.9725-1.3125-2.11125-2.29625-3.3925-3.035-3.02875-1.74375-5.78375-1.695-8.62375-1.0475-0.0538 0.0125-1.25 0.37-1.30125 0.39-2.55 1.0425-4.385 2.5525-5.66375 4.515-0.54375 0.045-1.10875 0.11375-1.6975 0.20875h-0.0325c-0.19875 0.0325 0.0813-0.0075-0.41125 0.08125-6.9025 1.26125-11.27 5.1125-13.7825 10.1538-1.82-0.2575-3.5675-0.01-5.33875 0.46625-0.0538 0.015-1.22 0.43375-1.27 0.45625-3.17375 1.44-5.18625 3.4175-6.31875 5.92625-0.385 0.05875-0.78 0.13-1.18375 0.21375-1.155 0.24-2.22 0.5525-3.18 0.93375-5.29875 2.11125-9.65875 6.51625-11.5438 13.095-0.24625 0.855-0.4625 1.8875-0.65 3.0875-0.1825 1.17875-0.285 1.87875-0.3 2.07375-0.035 0.43125-0.0588 1.1375-0.0688 2.10875-0.02 1.73625 0.1075 3.5525 0.38625 5.42625-1.32875 0.10125-2.6525 0.2875-3.95375 0.54625-1.2175-2.78375-3.165-4.8375-5.5375-6.31625-0.54-0.33625-1.095-0.635-1.65875-0.8975 0.0588-0.1 0.11875-0.2 0.1775-0.3025 0.004-0.0075 0.007-0.01375 0.0125-0.02v-0.065c0.4825-0.84625 0.9125-1.7675 1.29125-2.7425 0.3925-1.01625 0.69375-1.94375 0.905-2.7725 1.14875-4.5 1.13875-9.86375 0.0975-13.9012 0.005-0.0012 0.01-0.0025 0.015-0.0025-0.0412-0.16625-0.0712-0.2875-0.0737-0.29375-0.004 0.0012-0.006 0.0025-0.01 0.0025-0.29125-1.06375-0.67-2.10625-1.135-3.12-0.5325-1.16125-1.125-2.19125-1.77375-3.0875-3.62625-5.00875-9.12125-7.49625-16.1438-7.04125v0.0075c-2.71625 0.13375-5.4475 0.5125-8.17125 1.11-2.615 0.575-5.23875 1.38375-7.845 2.39875-12.8 4.9875-23.7338 14.8112-30.6825 26.2975-0.005-0.0025-0.01-0.005-0.015-0.0088-0.006 0.01125-0.0125 0.02125-0.0188 0.03125z" fill="#de4a54"/>
  <path d="m12.8478 57.5699v0.0325c-0.69 1.14375-1.4075 2.41375-2.14625 3.81125-0.7075 1.33625-1.3575 2.65625-1.93875 3.945-3.26625 7.24-5.20875 14.9625-4.675 22.3625 0.29375 4.0875 1.385 7.84375 3.11375 11.4712 1.5625 3.28 3.65125 6.37875 6.1425 9.505 2.68625 3.37 6.15875 7.39125 10.255 12.1338 3.2125 3.71875 6.8525 7.93375 11.5638 13.5775 0.001 0.001 0.1625 0.195 0.16375 0.195 3.26375 3.675 7.185 5.15875 10.8888 5.07 2.365-0.0562 4.60375-0.79 6.5425-2.0525 1.87875-1.2225 3.415-2.9125 4.44875-4.92875 1.42375-2.77625 1.92125-6.1775 1.00375-9.72625 4.66875 3.04625 9.46625 2.55625 13.405 0.55625 0.002 0.004 0.005 0.007 0.006 0.0125 0.002-0.001 0.006-0.002 0.009-0.004 0.0425-0.0225 0.0863-0.0437 0.13-0.065 0.94625-0.4925 1.83-1.11 2.6375-1.8475 0.8025-0.73125 1.5075-1.57875 2.10625-2.5325 0.83875-1.33625 1.4275-2.82375 1.73625-4.4325 5.8175 0.37375 11.8738-1.07375 16.6838-3.25 0.4525-0.205 0.78-0.3575 0.96875-0.4525 1.48125-0.7375 2.935-1.63 4.325-2.64875 1.53375 1.70375 3.48 3.18875 5.8625 4.32875 0.03 0.0138 0.20625 0.0925 0.51 0.2275 0.84375 0.37375 1.75875 0.69875 2.73125 0.97125 0.92125 0.25875 1.87125 0.45875 2.8375 0.59875 4.525 0.655 9.6825-0.025 14.3212-2.1925 0 0 0.002-0.001 0.008-0.002l0.001-0.001c0.001 0 0.002-0.001 0.004-0.002 0.0437-0.0138 0.1825-0.0575 0.18375-0.0588 0.001-0.001 0.004-0.002 0.006-0.002-0.004-0.009-0.009-0.0162-0.0112-0.0238 0.84375-0.4 1.5675-0.77875 2.155-1.135 0.7-0.4225 1.4525-0.9425 2.2575-1.56125 3.77-2.90375 6.815-7.0025 8.335-12.39 0.003 0 0.006 0.001 0.009 0.002 0.001-0.004 0.001-0.006 0.002-0.009v-0.0325c0.4625-1.6475 0.74625-3.33 0.885-5.03125 0.28375 0.02 0.565 0.0337 0.8425 0.0413 4.4775 0.12125 9.0575-1.19 12.7938-3.73125 0.001-0.0025 0.004-0.005 0.005-0.0062 0 0.0012 0.001 0.0012 0.001 0.0012 0.61125-0.41625 1.16875-0.83125 1.66125-1.24 0.46875-0.38875 0.99-0.87 1.56125-1.4425 2.5675-2.57875 4.57875-5.87 5.67-9.815 0 0 0.001-0.005 0.004-0.01375 0-0.0012 0.001-0.0037 0.001-0.0037 0.002-0.01 0.006-0.02125 0.01-0.03375 0-0.0012-0.001-0.0012-0.001-0.0012 0.0138-0.04875 0.0263-0.09625 0.0387-0.145 0.004 0 0.009 0.0012 0.0125 0.0025 0.0675-0.2725-0.02 0.09375-0.0312 0.14875-0.006-0.0025-0.0125-0.0037-0.0188-0.005 0.02-0.05875 0.05-0.14375 0.05-0.14375-0.004-0.0012-0.009-0.0025-0.0125-0.0025 0.2875-1.06875 0.4975-2.05 0.6325-2.95 0.15-0.9975 0.2475-1.925 0.29875-2.785 0.0937 0.03 0.19125 0.06 0.28625 0.08875 1.0775 0.325 2.15375 0.58 3.21875 0.76625 0.005 0.0012 0.009 0.0025 0.0138 0.0025h0.0325c7.40375 1.29 15.495-0.385 22.1175-4.55875 1.30375-0.82125 2.545-1.7325 3.705-2.72625 1.05875-0.90625 2.06-1.89 2.9975-2.94625 2.37625 1.1 4.99 1.34375 7.435 0.8h0.0662c0.24625-0.0575-0.007 0.01 0.2425-0.0525 0-0.0025-0.001-0.005-0.001-0.0062 0.095-0.02375 0.17375-0.0425 0.22875-0.05625 0.001 0.0037 0.002 0.0075 0.004 0.0125 3.00625-0.8175 5.68625-2.8375 7.28375-5.92625 1.32125-2.5525 1.8275-5.7375 0.93-9.3375-0.1425-0.57375 0.0288 0.02375-0.075-0.35875-0.005 0.0012-0.01 0.0037-0.0163 0.005-0.41875-1.85125 0.0613 0.22375-0.22375-1.0175-0.54875-2.4-1.0975-4.7975-1.51875-7.14375 2.6375 1.10625 5.27125 0.9575 8.48125-0.17875 1.295-0.45875 2.48625-1.12625 3.565-1.96875 2.6825-2.10125 4.3375-5.09625 4.89125-8.53625 0.43875-2.7225 0.1625-5.7375-0.8825-8.68875-0.73125-2.0675-1.86875-4.17-3.43125-6.165-0.66125-0.845-1.34125-1.6-2.02875-2.26375-3.3125-3.19625-7.44-5.0875-11.6675-5.515-3.6825-0.3725-7.395 0.36625-10.7112 2.3075-0.82375-0.35375-1.68-0.61125-2.56875-0.78375-2.2-0.42875-4.25375-0.225-6.31625 0.2425-0.0225 0.0038-0.825 0.22-0.84625 0.2275-0.007 0.0025-0.015 0.005-0.0225 0.0075-0.0213 0.01125-0.0425 0.0225-0.065 0.0325-3.17375 1.11-5.46625 2.97625-6.95625 5.425-0.18125-0.0525-0.3625-0.105-0.54625-0.155 0.001-0.0025 0.002-0.005 0.002-0.0075-0.98875-0.26375-2.06875-0.46125-3.24125-0.5825-1.2-0.125-2.315-0.17-3.3275-0.12625-0.0163 0.0013-0.0337 0.0013-0.05 0.0025-3.795 0.17625-7.8075 1.245-11.795 3.195-0.72625 0.35625-1.4675 0.74875-2.2175 1.17875-0.88375 0.505-1.61625 0.95-2.18875 1.3275-0.0188 0.0125-0.0375 0.02375-0.0563 0.03625-0.01 0.0225-0.0213 0.04375-0.0325 0.065-2.64125 1.765-4.91625 3.86625-6.80875 6.20875-0.9725-1.3125-2.11125-2.29625-3.3925-3.035-3.02875-1.74375-5.78375-1.695-8.62375-1.0475-0.0538 0.0125-1.25 0.37-1.30125 0.39-2.55 1.0425-4.385 2.5525-5.66375 4.515-0.54375 0.045-1.10875 0.11375-1.6975 0.20875h-0.0325c-0.19875 0.0325 0.0813-0.0075-0.41125 0.08125-6.9025 1.26125-11.27 5.1125-13.7825 10.1538-1.82-0.2575-3.5675-0.01-5.33875 0.46625-0.0538 0.015-1.22 0.43375-1.27 0.45625-3.17375 1.44-5.18625 3.4175-6.31875 5.92625-0.385 0.05875-0.78 0.13-1.18375 0.21375-1.155 0.24-2.22 0.5525-3.18 0.93375-5.29875 2.11125-9.65875 6.51625-11.5438 13.095-0.24625 0.855-0.4625 1.8875-0.65 3.0875-0.1825 1.17875-0.285 1.87875-0.3 2.07375-0.035 0.43125-0.0588 1.1375-0.0688 2.10875-0.02 1.73625 0.1075 3.5525 0.38625 5.42625-1.32875 0.10125-2.6525 0.2875-3.95375 0.54625-1.2175-2.78375-3.165-4.8375-5.5375-6.31625-0.54-0.33625-1.095-0.635-1.65875-0.8975 0.0588-0.1 0.11875-0.2 0.1775-0.3025 0.004-0.0075 0.007-0.01375 0.0125-0.02v-0.065c0.4825-0.84625 0.9125-1.7675 1.29125-2.7425 0.3925-1.01625 0.69375-1.94375 0.905-2.7725 1.14875-4.5 1.13875-9.86375 0.0975-13.9012 0.005-0.0012 0.01-0.0025 0.015-0.0025-0.0412-0.16625-0.0712-0.2875-0.0737-0.29375-0.004 0.0012-0.006 0.0025-0.01 0.0025-0.29125-1.06375-0.67-2.10625-1.135-3.12-0.5325-1.16125-1.125-2.19125-1.77375-3.0875-3.62625-5.00875-9.12125-7.49625-16.1438-7.04125v0.0075c-2.71625 0.13375-5.4475 0.5125-8.17125 1.11-2.615 0.575-5.23875 1.38375-7.845 2.39875-12.8 4.9875-23.7338 14.8112-30.6825 26.2975-0.005-0.0025-0.01-0.005-0.015-0.0088-0.006 0.01125-0.0125 0.02125-0.0188 0.03125z" fill="#de4a54"/>
  <path d="m174.707 42.8186 0.007-0.005 0.004 0.005c1.25375-0.9775 2.3275-2.01 3.19-3.03125 1.01-1.19625 1.6925-2.33625 1.9875-3.3025 0.17625-0.58 0.21125-0.995 0.075-1.17-0.005-0.0063-0.0225-0.0225-0.0487-0.045-0.9675-0.81625-3.675-0.23-6.76625 1.305-0.67875 0.3375-1.36625 0.72375-2.0475 1.15375-0.69625 0.4375-1.38125 0.91625-2.0375 1.4275v0.0087l-0.007 0.005-0.004-0.005c-1.25375 0.9775-2.3275 2.01-3.19 3.03-1.01125 1.19625-1.69375 2.3375-1.98875 3.30375-0.17625 0.58-0.21125 0.995-0.075 1.17 0.005 0.0075 0.0225 0.0225 0.0488 0.045 0.9675 0.81625 3.67625 0.23 6.76625-1.305 0.68-0.33875 1.3675-0.72375 2.04875-1.1525 0.69625-0.43875 1.38-0.9175 2.0375-1.42875v-0.0088zm-60.15 43.3438-0.0125 0.0025-0.025 0.0075c-3.2975 0.55125-6.66125-0.17375-9.7125-1.86 0.44375 1.56375 0.59125 3.12875 0.48875 4.66625 0.33875-0.29625 0.70125-0.56875 1.0875-0.815 1.92875-1.22875 4.4075-1.7725 7.32375-1.2125 0.4625 0.0875 0.9275 0.2025 1.39375 0.34375 0.70875 0.2125 1.425 0.33125 2.125 0.35375 1.2625 0.04125 2.43375-0.22875 3.35625-0.80125 0.8625-0.53625 1.53125-1.36 1.86375-2.45875v-0.0088c0.13875-0.46125 0.2225-0.98125 0.24125-1.5575 0.0175-0.52-0.005-1.06625-0.0613-1.6375-1.09125 1.5175-2.5 2.78-4.24875 3.695-0.5575 0.2925-1.16375 0.55-1.81375 0.77125-0.61375 0.2075-1.28375 0.38-2.00625 0.51125zm-18.5292-11.2313c-0.2525-0.5-0.49125-1.01-0.71-1.53375l-0.002 0.0012c-0.2425-0.5775-0.46625-1.17375-0.6675-1.78625-0.185-0.56125-0.36125-1.18125-0.52625-1.85875h-0.002c0.002 0.01625 0.004 0.02125-0.001 0.0012l-0.009-0.025c-0.61875-2.59-0.905-5.0675-0.88-7.36 0.008-0.63125 0.03-1.18875 0.0688-1.67 0.0337-0.42 0.1025-0.95875 0.20375-1.60875 0.13125-0.8425 0.29875-1.62125 0.5025-2.33125 1.3025-4.54875 4.26-7.57 7.83375-8.995 0.68-0.27 1.40125-0.485 2.155-0.64125 0.755-0.15625 1.5-0.24875 2.225-0.275v-0.0012h0.0125 0.002 0.001c0.0225-0.0012 0.0362-0.0012 0.0975-0.0037 0.90375-0.025 1.8175 0.04375 2.72625 0.2-0.0687-0.6775-0.0637-1.325 0.0325-1.945 0.31-1.9825 1.41-3.49 3.7-4.53 0.0113-0.005 0.30375-0.11 0.31625-0.11375 1.54375-0.415 2.99875-0.53125 4.465 0.235 1.175 0.6125 2.18875 1.7425 3.00875 3.69125 0.10125-2.26625 0.51375-4.495 1.33-6.50375 1.59875-3.93375 4.6625-7.00625 9.80625-7.945 0.195-0.035 0.29625-0.05375 0.31375-0.05625h0.007c0.94875-0.15375 1.8475-0.2 2.6975-0.13625 0.77625 0.05875 1.54875 0.20625 2.32375 0.44125-0.005-0.9225 0.15375-1.77375 0.52625-2.56625 0.58-1.23375 1.59-2.17875 3.18-2.82875 0.0137-0.005 0.3125-0.095 0.32625-0.0975 1.4425-0.32875 2.795-0.38125 4.1325 0.38875 1.21875 0.7025 2.21375 2.0225 2.92375 4.3775v0.0087c0.88 2.99875 1.95 6.72125 3.0825 10.7038 0.055-0.68875 0.1375-1.37625 0.2475-2.05625h0.001l0.001-0.0063v-0.0087c0.14875-0.90625 0.34625-1.805 0.59375-2.69125 0.24875-0.89375 0.545-1.76625 0.88625-2.6125 1.77125-4.39625 4.8175-8.3025 9.055-11.1325l0.009-0.01625 0.0563-0.0375c0.5775-0.38125 1.195-0.76 1.84625-1.1325 0.61875-0.355 1.2375-0.6825 1.85125-0.9825 3.20375-1.56625 6.37625-2.42375 9.33-2.56l0.05-0.0025c0.805-0.035 1.615-0.0075 2.42375 0.07625 0.80125 0.08375 1.55625 0.2225 2.265 0.41125v0.0025c2.65125 0.70875 4.8175 2.11 6.48375 3.96-0.225-1.49-0.21125-2.8825 0.06-4.12375 0.5425-2.48375 2.03-4.3425 4.6175-5.24625l0.0162-0.0088 0.0225-0.0075c0.005-0.0012 0.20625-0.05625 0.21125-0.0575 1.30125-0.29375 2.5525-0.43125 3.7775-0.19375 1.38 0.26875 2.62125 0.965 3.68875 2.335 0.055 0.07 0.10625 0.14 0.1575 0.20625 0.1275-0.14 0.265-0.28625 0.41125-0.4375 0.40125-0.41625 0.83125-0.8025 1.28375-1.15625 2.4625-1.92875 5.39375-2.69125 8.30125-2.3975 2.85 0.28875 5.66375 1.59375 7.9575 3.8075 0.50125 0.4825 0.98375 1.01875 1.4425 1.60375 1.12 1.43 1.93375 2.9325 2.45625 4.40875 0.6975 1.96875 0.89 3.92375 0.61375 5.6375-0.305 1.895-1.17625 3.5125-2.5725 4.60625-0.53875 0.42125-1.1425 0.7575-1.80875 0.99375-2.17375 0.76875-3.7675 0.68375-5.4375-0.54375-1.2975-0.9525-2.44125-2.5975-3.98125-5.18875-0.15-0.2525-0.465-0.46875-0.86375-0.4825-0.11125-0.0038-0.2025-0.0012-0.26375 0.01-0.0825 0.015-0.19125 0.05-0.3275 0.105l-0.002-0.0037-0.045 0.0225c-1.28 0.48875-2.17625 2.83375-2.33625 6.07625-0.0337 0.70625-0.0275 1.46375 0.025 2.25875 0.0537 0.8175 0.15 1.63375 0.29125 2.43625v0.01625l0.002 0.01375 0.007 0.04875c0.46375 3.2525 1.215 6.54 1.96625 9.82625 0.02 0.0875-0.002-0.0087 0.275 1.21625h0.002c0.004 0.0125 0.006 0.02625 0.01 0.04125l0.001-0.0012c0.002 0.0087 0.002 0.0175 0.004 0.0225v0.0012c0.007 0.02875 0.01 0.03875 0.0475 0.18875 0.4975 1.99875 0.25625 3.69125-0.4175 4.9925-0.74375 1.43625-1.98625 2.375-3.37875 2.75375l-0.001-0.0025c-0.0263 0.0062-0.0638 0.01625-0.1075 0.02625v0.0025c-0.04 0.01-0.0412 0.0087-0.12125 0.0275h-0.0163c-1.395 0.31-2.91 0.0675-4.20375-0.7875-1.21125-0.8-2.2125-2.125-2.685-4.01125l-0.001 0.0012c-0.006-0.025-0.006-0.02375-0.015-0.06875 0-0.0012 0-0.0038-0.001-0.005 0-0.0012-0.001-0.0012-0.001-0.0037 0-0.0012-0.001-0.0012-0.001-0.0025-1.29375-4.25875-2.6875-8.49-4.08125-12.7212-0.34625-1.0525-0.69375-2.10375-1.03875-3.15625-0.1875 1.9825-0.675 3.965-1.47375 5.84-1.1825 2.775-2.77 5.105-4.67875 7.13125-1.87625 1.99125-4.05625 3.67875-6.4625 5.2-0.75375 0.47625-1.59125 1.08125-2.0375 1.6925-0.075 0.1025-0.12875 0.17875-0.12875 0.18 0.001 0.0012 0.0875 0.1275 0.0888 0.13 0.0125 0.0175 0.025 0.03375 0.0362 0.0475 0 0 0.001 0.0012 0.001 0.0025 0.001 0.0012 0.004 0.0025 0.005 0.0038 0 0.0012 0.001 0.0012 0.001 0.0012v0.0012c0.25 0.27 0.92 0.21125 1.8225-0.06 1.46875-0.44125 3.235-1.4425 5.03125-2.72 1.0575-0.75125 2.11125-1.58875 3.115-2.4575 1.0175-1.1575 2.11-1.81375 3.13625-2.0725 0.65-0.16375 1.285-0.1725 1.8775-0.04875 0.63875 0.135 1.21 0.4175 1.685 0.82125l0.007 0.0087c0.6275 0.53375 1.08125 1.26625 1.3 2.13375l0.002 0.0087v0.0087c0.0725 0.295 0.11875 0.56 0.13625 0.79375v0.0075c0.0188 0.26875 0.0188 0.54125-0.004 0.81125-0.10625 1.265-0.68875 2.715-1.92125 4.12625h0.001l-0.009 0.01125c-0.8175 0.9525-1.70375 1.835-2.64625 2.6425-0.93625 0.80125-1.9325 1.5325-2.9725 2.18875-5.3325 3.36-11.825 4.7125-17.7488 3.68h-0.009l-0.0125-0.0025c-0.845-0.1475-1.685-0.34625-2.5125-0.595-0.8325-0.25125-1.64375-0.55125-2.4275-0.89875-2.8375-1.26125-5.39-3.17875-7.4275-5.80125 1.035 3.805 1.7475 8.00875 1.55625 11.9962-0.0387 0.80125-0.1175 1.62-0.2425 2.45125-0.1175 0.77875-0.2825 1.56875-0.50125 2.36625l0.002 0.0012-0.008 0.025 0.002 0.0012c0.004-0.01625 0.0213-0.09125 0.005-0.02625l-0.002-0.0012c-0.003 0.0088-0.005 0.0175-0.006 0.02625h0.001l-0.007 0.02375c-0.78875 2.85125-2.2375 5.22625-4.08375 7.08-0.3775 0.3775-0.75125 0.72125-1.12125 1.0275-0.375 0.31125-0.77625 0.61125-1.19875 0.89875v-0.0012l-0.006 0.0062c-2.63875 1.795-5.90875 2.72125-9.1325 2.63375-0.62375-0.01625-1.25625-0.07375-1.89125-0.16875-0.62875-0.09625-1.25-0.23125-1.86-0.40625l0.001-0.0012-0.005-0.0025h-0.009c-1.4075-0.405-2.76-1.02875-3.9425-1.88 0.73875 4.18125 0.86875 8.305-0.17125 12.0125v0.008l-0.002 0.009-0.002-0.001c-1.125 3.99875-3.36875 7.02875-6.145 9.16625-0.5575 0.43-1.11625 0.8125-1.67125 1.14875-0.52375 0.31625-1.09625 0.62125-1.7075 0.9075l0.002 0.005-0.006 0.004-0.05 0.0162c-3.5 1.63625-7.3925 2.15-10.805 1.655-0.69875-0.10125-1.37875-0.24375-2.03375-0.4275-0.6675-0.1875-1.305-0.41375-1.90125-0.67875-0.15-0.0662-0.265-0.11875-0.34-0.15375-3.9475-1.8875-6.06125-5.16-6.62625-8.51625-0.0437-0.26375-0.0775-0.525-0.1025-0.78375-2.30625 3.295-5.60875 6.04625-9.10375 7.75625-0.1425 0.0687-0.3325 0.15875-0.57 0.26625-5.9975 2.69875-14.2 4.11125-20.1862 1.04125-0.57125-0.2925-1.1225-0.6275-1.65125-1.00375 0.19375 0.41375 0.3725 0.81125 0.5375 1.18875 0 0.001 0.004 0.009 0.007 0.0187l0.004-0.002c1.58 3.63875 1.49125 6.6875 0.16 8.8075-0.29125 0.46375-0.63625 0.87875-1.0325 1.24s-0.83875 0.66875-1.32 0.91875l-0.0325 0.0162-0.009 0.005-0.001-0.004c-2.30125 1.18-5.12875 1.43-7.79875-0.605-0.48375-0.36875-0.95875-0.81625-1.41875-1.3525-0.43125-0.5025-0.85125-1.08625-1.25125-1.76l-0.009-0.007c-0.0238-0.0413-0.0438-0.0738-0.06-0.1025h-0.004c-1.89125-3.235-3.68875-6.39875-5.44875-9.555-0.28625 1.90125-1.08625 3.7725-2.475 5.28625-1.28625 1.40375-2.77375 2.59125-4.075 3.54625 0.0825 0.13 0.16625 0.265 0.25375 0.40375 0.48375 0.77 0.9725 1.5775 1.465 2.4225 0.53625 0.9225 1.12125 1.97125 1.75625 3.16 0.63 1.1775 1.25625 2.39375 1.87375 3.645 0 0.001 0.0487 0.105 0.0487 0.10625 1.07125 2.495 0.89125 4.88875-0.0525 6.7325-0.53625 1.045-1.32375 1.915-2.2775 2.53625-0.97 0.63125-2.0975 0.99875-3.29625 1.0275-1.99625 0.0475-4.17375-0.82375-6.08125-2.97125l-0.04-0.0487c-4.425-5.29875-8.255-9.735-11.6375-13.6512-3.995-4.625-7.38-8.545-10.085-11.9375-2.20375-2.765-4.0375-5.47875-5.38625-8.30875-1.39-2.9175-2.26625-5.9375-2.50375-9.22625-0.455-6.31625 1.25125-13.0162 4.11375-19.36 0.54375-1.20625 1.13625-2.41 1.76875-3.605 0.64-1.21125 1.30125-2.37625 1.975-3.4925v-0.0088l0.0188-0.03125 0.004 0.0025c6.2825-10.39 16.1175-19.2575 27.5938-23.7288 2.2625-0.88125 4.57375-1.59125 6.91875-2.105 2.3775-0.5225 4.7925-0.85375 7.22375-0.96875h0.009l0.01-0.0012v-0.0013c4.75375-0.30875 8.39375 1.265 10.7025 4.4525 0.43375 0.60125 0.8225 1.27375 1.1625 2.015 0.32375 0.70375 0.59125 1.4525 0.80125 2.23875h0.002c0.003 0.0087 0.0125 0.0475 0.025 0.0975h-0.004c0.80625 3.0975 0.80125 7.2875-0.10875 10.8538-0.175 0.6825-0.395 1.375-0.66125 2.065-0.26375 0.67875-0.56375 1.3225-0.90125 1.91125v0.0175l-0.0113 0.02c-3.53875 6.1575-7.3975 6.20125-11.8888 6.25125-1.9175 0.02125-3.9825 0.045-6.08 0.76375-6.795 2.32375-14.4275 7.05375-18.6662 13.445-0.795 1.19875-1.47125 2.465-1.99625 3.78875-0.50375 1.26875-0.86375 2.5725-1.05375 3.9-0.07 2.575 0.65875 4.94875 1.86375 7.26875 0.995 1.915 2.32 3.81875 3.79625 5.7675 1.385-1.2425 2.755-2.46625 4.34375-3.355l0.004-0.002c2.22125-1.24 4.255-1.485 6-1.04-1.28125-2.3675-2.5725-4.76625-3.89375-7.2225-0.235-0.4375-0.47125-0.87875-0.70875-1.31875-0.001-0.0012-0.0487-0.08875-0.0487-0.09-1.41-2.96125-2.14-5.46875-2.03875-7.62875 0.11625-2.51 1.24125-4.465 3.5525-5.965 1.75-1.135 4.025-1.39125 6.165-0.55125 0.40375 0.15875 0.805 0.3575 1.19625 0.5975 0.38 0.23375 0.755 0.50875 1.1175 0.8275l0.009 0.0075 0.0412 0.0375h0.007c0.21625 0.1925 0.4125 0.38125 0.5925 0.56625-0.001 0.0012-0.001 0.0012-0.001 0.0025 0-0.0012 0.001-0.0012 0.001-0.0025 0 0.0012 0.001 0.0025 0.001 0.0025 0.1375-0.21875 0.095-0.15125 0.0325-0.05625 1.34-2.145 3.095-3.8675 5.28875-5.1775 2.17875-1.3025 4.77625-2.18375 7.81375-2.65375 0.001 0 0.11375-0.01625 0.11375-0.01625 0.53-0.0525 1.0225-0.0875 1.45625-0.09625 2.27625-0.04625 4.645 0.36125 6.58375 1.57 2.06875 1.29 3.5775 3.39625 3.9075 6.6625 0.04 0.38625 0.0637 0.73125 0.0687 1.0325v0.1875c-0.0325 0.4475-0.0813 0.865-0.145 1.25875 5.35875-2.455 12.1262-3.48 17.615-1.48375zm30.7213-13.2338c0.14375 0.40625 0.2925 0.83 0.44875 1.27125l0.0163 0.04125 0.002 0.0075-0.002 0.0012c0.39 1.105 0.85875 2.37 1.3475 3.69125 0.5475 1.4825 1.1225 3.0325 1.685 4.63 0.6125-1.4725 1.595-2.755 2.92125-3.66125 1.4825-1.0125 3.35625-1.535 5.56625-1.30375 0.85125 0.09 1.73625 0.285 2.645 0.60125l0.009 0.0088c0.34 0.1175 0.695 0.1875 1.0575 0.21375 0.83625 0.06 1.5875-0.19 2.1975-0.65125 0.67875-0.515 1.20875-1.2825 1.525-2.1925 0.1625-0.47125 0.27-0.9925 0.31-1.54875 0.0138-0.19625 0.0188-0.3875 0.015-0.57875-0.1975 0.21625-0.4 0.4225-0.6075 0.62-1.90375 1.805-4.2475 2.85125-6.72625 3.19125-2.41875 0.33375-4.95875-0.01125-7.32375-0.97875-1.8375-0.7525-3.57875-1.8825-5.08625-3.3625zm-11.5012 0.92c-0.75625-1.53125-1.61625-2.8275-2.4875-3.81625-0.6975-0.79125-1.36625-1.35-1.94875-1.62875-0.2275-0.11-0.375-0.17-0.42375-0.17375-0.05 0.04875-0.1 0.12625-0.1475 0.23-0.0937 0.20375-0.16625 0.46875-0.21875 0.78375-0.35375 2.15 0.35875 5.57625 1.99625 8.89125 0.75625 1.53125 1.61625 2.82625 2.48875 3.81625 0.69625 0.79125 1.365 1.35 1.94875 1.62875 0.2275 0.10875 0.37375 0.17125 0.4225 0.175 0.05-0.04875 0.1-0.12625 0.1475-0.23 0.0937-0.20375 0.16625-0.46875 0.21875-0.785 0.35375-2.14875-0.3575-5.57625-1.99625-8.89125zm-50.4175 30.8125c0.19375-2.5525 1.08125-5.015 2.43875-7.275 0.7925-1.31625 1.7475-2.56375 2.8175-3.71625-0.1925 0.015-0.385 0.03-0.57875 0.04375-2.5075 0.1875-5.12125 0.3825-5.9675 2.95-0.50875 2.05 0.15375 4.93125 1.29 7.9975zm15.5325-8.34375c-1.83875 0.98625-3.3 2.0925-4.26875 3.15625-0.51375 0.56375-0.8575 1.08-1.0075 1.515-0.04 0.11625-0.0712 0.18-0.0825 0.20625 0.08 0.0713 0.19625 0.13375 0.3425 0.18625 0.25125 0.0913 0.5575 0.15375 0.91 0.19 2.33 0.23625 5.9025-0.64875 9.25-2.445h0.007c1.84-0.98625 3.3-2.0925 4.27-3.1575 0.5125-0.5625 0.8575-1.07875 1.0075-1.51375 0.0388-0.115 0.0725-0.17875 0.0825-0.205-0.0775-0.06875-0.19125-0.13-0.33375-0.1825l-0.001 0.0025c-0.26875-0.09625-0.57875-0.1625-0.91875-0.19625-2.33-0.2375-5.9025 0.64875-9.24875 2.44375h-0.009zm60.6363-40.0738c-0.57-1.6375-1.2725-3.015-2.00875-4.0375-0.49-0.67875-0.97-1.16875-1.40125-1.4325-0.0775-0.04625-0.085-0.09625-0.0913-0.125-0.0238 0.03-0.0488 0.07-0.0762 0.11875-0.1 0.17625-0.19 0.41375-0.2675 0.70125-0.525 1.9525-0.2375 5.1675 0.87875 8.3725 0.57 1.6375 1.2725 3.015 2.00875 4.0375 0.49 0.6775 0.97 1.16875 1.4025 1.43125 0.0738 0.045 0.0825 0.095 0.0875 0.12375 0.0225-0.03125 0.05-0.0725 0.0788-0.12375l0.004 0.0012c0.0975-0.175 0.1875-0.41 0.26375-0.695 0.52375-1.9525 0.2375-5.1675-0.87875-8.3725z"/>
 </g>
 <g fill-rule="evenodd">
  <g>
   <path style="color:#000000" d="m163.17 23.3836c4.13-2.7325 8.2925-4.19625 12.0262-4.37 5.28375-0.245 9.0325 2.24 11.1262 5.8875 2.3725 4.1325 2.61875 9.755 0.56125 14.5825-2.16 5.07125-5.8075 8.52375-10.335 11.3875-1.8675 1.18-4.21875 3.09-2.6625 4.96375 2.10375 2.96125 8.2125-0.58375 13.1888-4.925 2.01625-2.37125 4.07375-1.81125 4.50375-0.1125 0.2575 1.01875-0.0712 2.44875-1.345 3.90125-5.32875 6.22-13.9012 9.1375-21.4488 7.8225-5.50875-0.96125-10.4712-4.175-13.2312-10.0062-2.1375-4.51875-2.78-9.43375-2.025-14.07 0.97-5.96125 4.2525-11.46 9.64125-15.0612zm12.82 21.0725c-5.16375 4.02625-11.2188 5.75125-13.4788 3.84375-2.25875-1.9075 0.11-6.74875 5.27375-10.7725 5.16375-4.02625 11.2188-5.75125 13.4788-3.84375 2.26 1.90875-0.10875 6.7475-5.27375 10.7725z" fill="url(#a)"/>
   <path style="color:#000000" d="m142.959 44.3286c-1.7525-5.03125-4.72875-8.02125-6.625-6.6525-1.8975 1.36625-2.01375 6.585-0.26125 11.6162 1.7525 5.0325 4.73 8.02125 6.625 6.65375 1.89625-1.36625 2.01375-6.585 0.26125-11.6175zm-3.055-10.3338c-1.05125-0.8-2.11125-1.38-3.19625-1.7425-1.395-0.465-2.83125-0.57125-4.34375-0.32625-9.11125 1.47375-10.6775 10.7475-9.29375 18.3288 0.71375 3.82 2.465 7.1575 4.7825 9.6025 5.73 6.04625 15.8025 5.9125 19.2012-2.39375 0.0775-0.18875 0.1475-0.38125 0.21375-0.57625 0.81625 2.2775 1.4375 4.06875 1.2925 6.065-0.3025 4.18-3.67125 7.445-7.85625 5.9925-5.41125-1.88-8.65875 1.385-9.07375 5.335-0.52375 4.9775 2.73 7.84125 6.48 8.9225 3.74875 1.08125 7.9925 0.38125 11.155-1.77 2.55875-1.74125 4.6225-4.3875 5.57875-7.84875 1.3875-5.015 0.53625-10.9812-0.90875-16.1438-2.59875-9.28375-5.77125-20.545-7.78125-27.39-1.07-3.55125-2.6525-3.78125-4.6075-3.33625-2.1425 0.87625-2.63375 2.37-2.32375 4.495 0.12125 0.83125 0.365 1.76125 0.68125 2.78625z" fill="url(#e)"/>
   <path style="color:#000000" d="m117.11 61.6974c-2.54-5.14-6.1725-7.95625-8.08875-6.26875-1.915 1.6875-1.40625 7.255 1.13375 12.395s6.17375 7.955 8.08875 6.26875 1.40625-7.255-1.13375-12.395zm-2.9325 22.425c4.28625-0.775 6.96875-3.48875 8.29875-7.0825 0.3025-0.81875 0.535-1.6825 0.7-2.58 1.02875 3.1325 1.67375 6.00375 1.59375 8.4275-0.0937 2.84125-1.38375 4.8275-3.28875 5.91-1.90375 1.08125-4.4225 1.26125-6.975 0.49-5.74625-1.735-9.49125 1.53125-10.2862 5.67125-0.7 3.65125 0.895 7.98375 5.43875 10.155 3.62375 1.73125 8.82375 1.70125 13.3075-0.39375 3.79375-1.77375 7.075-5.025 8.45625-9.9375 2.645-9.41-3.0925-22.35-6.1825-31.1138-2.2-6.2375-4.45-12.4225-6.27375-17.68-1.36-3.9225-3.14625-4.11-5.3225-3.52375-3.12625 1.41875-2.9725 3.91375-1.73125 7.61-1.79125-0.7925-3.685-1.20125-5.525-1.1475-4.5775 0.1325-8.83 2.98375-10.3825 8.40125-0.94875 3.31125-0.945 7.42125 0.13 11.9212 1.00375 4.12875 3.1325 7.735 5.845 10.3775 3.48625 3.39875 7.93625 5.20625 12.1975 4.495z" fill="url(#d)"/>
   <path style="color:#000000" d="m44.5278 84.9149c5.26375 9.78375 9.985 18.6 15.5675 28.1512 2.40875 4.12125 5.48125 4.22375 7.8175 3.01625s3.0375-4.18 1.24875-8.30125c-2.44625-5.63125-9.195-16.705-7.63375-22.8737 2.56625-8.33 14.27-0.4625 14.9475-9.8975-0.13125-6.38125-5.3325-7.58875-9.73-7.14375-5.5375 0.85875-9.3925 3.16375-11.7388 7.01125-1.37125 2.24625-1.48625 2.92-1.6625 2.67125s-0.41375-1.42-2.0275-2.86c-1.91875-1.7125-4.3425-1.8225-6.0225-0.7325-3.38875 2.2-3.2925 5.65125-0.76625 10.9588z" fill="url(#f)"/>
   <path style="color:#000000" d="m79.3865 83.2561c-5.14625 2.76-7.7475 6.46375-5.79 8.245 1.955 1.7825 7.7475 0.985 12.8938-1.775 5.14625-2.76 7.7475-6.465 5.79125-8.24625s-7.74875-0.98375-12.895 1.77625zm22.6238-0.43625c-4.3275-8.5425-15.345-8.03375-23.075-4.35625-7.72875 3.67875-14.9875 12.5775-10.8612 21.1888 4.25 8.86375 15.7412 7.63 23.4325 4.16875 7.72375-3.515 14.6125-12.6037 10.5038-21.0012z" fill="url(#b)"/>
  </g>
  <path d="m19.994 61.8674c-4.7875 7.9175-8.17375 16.9838-7.57625 25.2675 0.4375 6.04625 3.22 11.1 7.435 16.3887 5.0775 6.36875 12.3812 14.4012 21.6888 25.5488 4.64125 5.22375 10.685 0.5625 8.2425-5.13-1.26625-2.5675-2.455-4.77375-3.56625-6.6825-0.97875-1.68375-1.89875-3.13625-2.75625-4.4 1.45625-1.02625 3.65625-2.54 5.3825-4.42125 2.545-2.775 2.7025-6.56125 1.32625-9.15375-1.37375-2.59125-4.28125-3.98875-7.86125-1.98875-1.91375 1.06875-3.7325 2.96125-5.64125 4.56875-4.16375-5.3175-7.64125-10.2075-7.45625-16.165 1.49-11.2425 13.1812-19.5962 23.13-23 6.90625-2.36375 12.2912 1.81 16.83-6.0875 2.07125-3.605 2.48875-9.44625 1.475-13.3212-1.305-4.98375-4.9775-7.5875-10.5462-7.22625-16.6588 0.77625-31.68 11.8612-40.1062 25.8025z" fill="url(#g)"/>
  <path style="color:#000000" d="m191.714 13.9611c2.09625-0.475 3.92875-0.4625 5.375 1.3925 2.74375 3.51875 0.40625 3.3475 3.7-0.06875 4.4925-4.65625 11.6512-3.67125 15.8538 1.695 3.92875 5.0175 3.50625 11.0362-0.3675 12.4075-2.93125 1.03875-4.13625-0.11625-6.93875-4.82875-0.6525-1.09875-2.225-1.9775-4.03125-1.235-2.8725 1.0975-4.48 6.57375-3.3275 13.0875 0.53875 3.7775 1.445 7.555 2.30375 11.3338 0.8325 3.06375-0.575 4.98-2.35 5.4225-1.77375 0.4425-3.91375-0.58875-4.54375-3.42-2.59-8.52625-5.61625-17.0512-8.20625-25.5762-1.70875-4.89125-1.165-8.93375 2.5325-10.21z" fill="url(#c)"/>
 </g>
</svg>
